<?xml version="1.0" encoding="utf-8"?>
<!-- Generator: Adobe Illustrator 21.0.2, SVG Export Plug-In . SVG Version: 6.00 Build 0)  -->
<svg version="1.1" id="Camada_1" xmlns="http://www.w3.org/2000/svg" xmlns:xlink="http://www.w3.org/1999/xlink" x="0px" y="0px"
	 viewBox="0 0 2048 1260" style="enable-background:new 0 0 2048 1260;" xml:space="preserve">
<style type="text/css">
	.st0{fill:#002B2F;}
	.st1{fill:#FFFFFF;}
	.st2{fill:#00FFFF;}
	.st3{fill:#29ABE2;}
</style>
<g>
	<rect class="st0" width="2048" height="1260"/>
</g>
<g>
	<g>
		<path class="st1" d="M370.3,902.1v-3.3c0-0.5,0.2-0.7,0.7-0.7h1.1c0.4,0,0.7,0.2,0.7,0.7v3.2c0,2.8,0.7,4.9,2.2,6.5
			c1.5,1.6,3.6,2.4,6.3,2.4h9.8c2.7,0,4.8-0.8,6.3-2.4c1.5-1.6,2.2-3.8,2.2-6.5v-4.1c0-2.6-1-4.6-3-6.1c-2-1.5-4.4-2.6-7.3-3.3
			c-2.9-0.7-5.7-1.4-8.6-2c-2.9-0.7-5.3-1.8-7.3-3.4c-2-1.6-3-3.7-3-6.4v-4.9c0-3.4,1-6.1,3-8.1c2-2,4.6-3,8-3h9.8c3.3,0,6,1,8,3
			c2,2,3,4.7,3,8.1v2.4c0,0.5-0.2,0.7-0.7,0.7h-1.1c-0.4,0-0.7-0.2-0.7-0.7v-2.4c0-2.8-0.7-4.9-2.2-6.5c-1.5-1.6-3.6-2.4-6.3-2.4
			h-9.8c-2.7,0-4.8,0.8-6.3,2.4c-1.5,1.6-2.2,3.8-2.2,6.5v4.7c0,4,3.4,6.8,10.3,8.3c2.9,0.6,5.8,1.3,8.6,2c2.9,0.7,5.3,2,7.3,3.8
			c2,1.8,3,4.1,3,7.1v4.3c0,3.4-1,6.1-3,8.1c-2,2-4.6,3-8,3h-9.8c-3.3,0-6-1-8-3C371.3,908.1,370.3,905.4,370.3,902.1z"/>
		<path class="st1" d="M416.2,864.8v-8.1c0-0.5,0.2-0.7,0.7-0.7h1.1c0.4,0,0.7,0.2,0.7,0.7v8.1c0,0.5-0.2,0.7-0.7,0.7h-1.1
			C416.4,865.5,416.2,865.3,416.2,864.8z M416.2,912.4v-40.1c0-0.5,0.2-0.7,0.7-0.7h1.1c0.4,0,0.7,0.2,0.7,0.7v40.1
			c0,0.5-0.2,0.7-0.7,0.7h-1.1C416.4,913.2,416.2,912.9,416.2,912.4z"/>
		<path class="st1" d="M433.9,913.2h-1.1c-0.4,0-0.7-0.2-0.7-0.7v-40.1c0-0.5,0.2-0.7,0.7-0.7h1.1c0.4,0,0.7,0.2,0.7,0.7v3.5h0.3
			c1.5-2.8,4.4-4.2,8.6-4.2h3.6c4.8,0,8.1,1.9,9.9,5.8c0.8-1.9,2.2-3.3,4.2-4.3s4.1-1.5,6.2-1.5h3.3c3.3,0,6,1,8,3c2,2,3,4.7,3,8.1
			v29.8c0,0.5-0.2,0.7-0.7,0.7h-1.1c-0.4,0-0.7-0.2-0.7-0.7v-29.7c0-2.8-0.7-4.9-2.2-6.5c-1.5-1.6-3.6-2.4-6.3-2.4h-3.3
			c-2.8,0-5,0.8-6.7,2.4c-1.7,1.6-2.6,3.8-2.6,6.5v29.7c0,0.5-0.2,0.7-0.7,0.7h-1.1c-0.4,0-0.7-0.2-0.7-0.7v-29.7
			c0-2.8-0.7-4.9-2.2-6.5s-3.6-2.4-6.3-2.4h-3.4c-2.7,0-4.9,0.7-6.6,2.2c-1.7,1.5-2.5,3.6-2.5,6.3v30.1
			C434.6,912.9,434.4,913.2,433.9,913.2z"/>
		<path class="st1" d="M496,925.6h-1.1c-0.4,0-0.7-0.2-0.7-0.7v-52.6c0-0.5,0.2-0.7,0.7-0.7h1.1c0.4,0,0.7,0.2,0.7,0.7v3.5h0.3
			c1.5-2.8,4.4-4.2,8.6-4.2h6c3.3,0,6,1,8,3c2,2,3,4.7,3,8.1v19.4c0,3.4-1,6.1-3,8.1c-2,2-4.6,3-8,3h-6c-4.2,0-7.1-1.4-8.6-4.2h-0.3
			v16C496.6,925.4,496.4,925.6,496,925.6z M505.8,910.9h5.9c2.7,0,4.8-0.8,6.3-2.4c1.5-1.6,2.2-3.8,2.2-6.5v-19.3
			c0-2.8-0.7-4.9-2.2-6.5c-1.5-1.6-3.6-2.4-6.3-2.4h-5.9c-2.7,0-4.9,0.7-6.6,2.2c-1.7,1.5-2.5,3.6-2.5,6.3v20.1
			c0,2.7,0.8,4.8,2.5,6.3C500.9,910.1,503.1,910.9,505.8,910.9z"/>
		<path class="st1" d="M537,913.2h-1.1c-0.4,0-0.7-0.2-0.7-0.7v-55.9c0-0.5,0.2-0.7,0.7-0.7h1.1c0.4,0,0.7,0.2,0.7,0.7v55.9
			C537.7,912.9,537.5,913.2,537,913.2z"/>
		<path class="st1" d="M578,913.2h-16.7c-3.3,0-6-1-8-3c-2-2-3-4.7-3-8.1v-19.4c0-3.4,1-6.1,3-8.1c2-2,4.6-3,8-3h7.2c3.3,0,6,1,8,3
			c2,2,3,4.7,3,8.1V893c0,0.5-0.2,0.8-0.7,0.8h-25.1c-0.5,0-0.7,0.2-0.7,0.7v7.5c0,2.8,0.7,4.9,2.2,6.5c1.5,1.6,3.6,2.4,6.3,2.4H578
			c0.5,0,0.7,0.2,0.7,0.7v1C578.7,912.9,578.5,913.2,578,913.2z M553.5,891.5h22.7c0.5,0,0.7-0.2,0.7-0.7v-8.2
			c0-2.8-0.7-4.9-2.2-6.5s-3.6-2.4-6.3-2.4h-7.2c-2.7,0-4.8,0.8-6.3,2.4s-2.2,3.8-2.2,6.5v8.2C552.8,891.3,553,891.5,553.5,891.5z"
			/>
		<path class="st1" d="M611.7,913.2h-1.1c-0.5,0-0.7-0.2-0.5-0.7l17.1-51c0.2-0.5,0.4-0.7,0.8-0.7h2c0.4,0,0.7,0.2,0.8,0.7l17.1,51
			c0.2,0.5,0,0.7-0.5,0.7h-1.2c-0.4,0-0.7-0.2-0.8-0.7l-5-14.2h-22.8l-5,14.2C612.3,912.9,612,913.2,611.7,913.2z M628.8,863.8
			l-10.4,32h21l-10.4-32H628.8z"/>
		<path class="st1" d="M658.7,913.2h-1.1c-0.4,0-0.7-0.2-0.7-0.7v-40.1c0-0.5,0.2-0.7,0.7-0.7h1.1c0.4,0,0.7,0.2,0.7,0.7v3.7h0.3
			c0.6-1.1,1.6-2.1,3.1-3c1.5-0.9,3.4-1.4,5.8-1.4h3.3c0.5,0,0.7,0.2,0.7,0.7v1c0,0.4-0.2,0.7-0.7,0.7h-3.3c-2.8,0-5,0.9-6.7,2.6
			c-1.7,1.7-2.5,4.1-2.5,7.1v28.9C659.4,912.9,659.1,913.2,658.7,913.2z"/>
		<path class="st1" d="M704.1,911.5v1c0,0.4-0.2,0.7-0.7,0.7h-11.6c-3.3,0-6-1-8-3c-2-2-3-4.7-3-8.1v-19.4c0-3.4,1-6.1,3-8.1
			c2-2,4.6-3,8-3h11.6c0.5,0,0.7,0.2,0.7,0.7v1c0,0.4-0.2,0.7-0.7,0.7h-11.6c-2.7,0-4.8,0.8-6.3,2.4s-2.2,3.8-2.2,6.5V902
			c0,2.8,0.7,4.9,2.2,6.5c1.5,1.6,3.6,2.4,6.3,2.4h11.6C703.8,910.9,704.1,911.1,704.1,911.5z"/>
		<path class="st1" d="M729.6,913.2h-6c-3.3,0-6-1-8-3c-2-2-3-4.7-3-8.1v-19.4c0-3.4,1-6.1,3-8.1c2-2,4.6-3,8-3h16.8
			c0.4,0,0.7,0.2,0.7,0.7v40.1c0,0.5-0.2,0.7-0.7,0.7h-1.1c-0.4,0-0.7-0.2-0.7-0.7v-3.5h-0.3C736.7,911.7,733.8,913.2,729.6,913.2z
			 M738.6,902.4v-27.9c0-0.4-0.2-0.7-0.7-0.7h-14.3c-2.7,0-4.8,0.8-6.3,2.4s-2.2,3.8-2.2,6.5V902c0,2.8,0.7,4.9,2.2,6.5
			c1.5,1.6,3.6,2.4,6.3,2.4h5.9c2.7,0,4.9-0.7,6.6-2.2C737.7,907.2,738.6,905.1,738.6,902.4z"/>
		<path class="st1" d="M770.2,913.2h-6c-3.3,0-6-1-8-3c-2-2-3-4.7-3-8.1v-19.4c0-3.4,1-6.1,3-8.1c2-2,4.6-3,8-3h6
			c4.2,0,7.1,1.4,8.6,4.2h0.3v-19.3c0-0.5,0.2-0.7,0.7-0.7h1.1c0.4,0,0.7,0.2,0.7,0.7v55.9c0,0.5-0.2,0.7-0.7,0.7h-1.1
			c-0.4,0-0.7-0.2-0.7-0.7v-3.5h-0.3C777.3,911.7,774.5,913.2,770.2,913.2z M779.2,902.4v-20.1c0-2.7-0.8-4.8-2.5-6.3
			c-1.7-1.5-3.9-2.2-6.6-2.2h-5.9c-2.7,0-4.8,0.8-6.3,2.4s-2.2,3.8-2.2,6.5V902c0,2.8,0.7,4.9,2.2,6.5c1.5,1.6,3.6,2.4,6.3,2.4h5.9
			c2.7,0,4.9-0.7,6.6-2.2C778.3,907.2,779.2,905.1,779.2,902.4z"/>
		<path class="st1" d="M821.5,913.2h-16.7c-3.3,0-6-1-8-3c-2-2-3-4.7-3-8.1v-19.4c0-3.4,1-6.1,3-8.1c2-2,4.6-3,8-3h7.2
			c3.3,0,6,1,8,3c2,2,3,4.7,3,8.1V893c0,0.5-0.2,0.8-0.7,0.8H797c-0.5,0-0.7,0.2-0.7,0.7v7.5c0,2.8,0.7,4.9,2.2,6.5
			c1.5,1.6,3.6,2.4,6.3,2.4h16.7c0.5,0,0.7,0.2,0.7,0.7v1C822.3,912.9,822,913.2,821.5,913.2z M797,891.5h22.7
			c0.5,0,0.7-0.2,0.7-0.7v-8.2c0-2.8-0.7-4.9-2.2-6.5s-3.6-2.4-6.3-2.4h-7.2c-2.7,0-4.8,0.8-6.3,2.4s-2.2,3.8-2.2,6.5v8.2
			C796.3,891.3,796.6,891.5,797,891.5z"/>
		<path class="st1" d="M877.5,913.2h-9c-3.3,0-6-1-8-3c-2-2-3-4.7-3-8.1v-30.3c0-3.4,1-6.1,3-8.1c2-2,4.6-3,8-3h9c3.3,0,6,1,8,3
			c2,2,3,4.7,3,8.1v4.1c0,0.5-0.2,0.7-0.7,0.7h-1.1c-0.4,0-0.7-0.2-0.7-0.7v-4c0-2.8-0.7-4.9-2.2-6.5c-1.5-1.6-3.6-2.4-6.3-2.4h-9
			c-2.7,0-4.8,0.8-6.3,2.4c-1.5,1.6-2.2,3.8-2.2,6.5V902c0,2.8,0.7,4.9,2.2,6.5c1.5,1.6,3.6,2.4,6.3,2.4h9c2.7,0,4.8-0.8,6.3-2.4
			c1.5-1.6,2.2-3.8,2.2-6.5v-12.3c0-0.4-0.2-0.7-0.7-0.7h-10.5c-0.5,0-0.7-0.2-0.7-0.7v-1c0-0.4,0.2-0.7,0.7-0.7h12.2
			c1,0,1.5,0.5,1.5,1.5v13.8c0,3.4-1,6.1-3,8.1C883.4,912.2,880.8,913.2,877.5,913.2z"/>
		<path class="st1" d="M917.6,913.2h-6c-3.3,0-6-1-8-3c-2-2-3-4.7-3-8.1v-19.4c0-3.4,1-6.1,3-8.1c2-2,4.6-3,8-3h16.8
			c0.4,0,0.7,0.2,0.7,0.7v40.1c0,0.5-0.2,0.7-0.7,0.7h-1.1c-0.4,0-0.7-0.2-0.7-0.7v-3.5h-0.3C924.7,911.7,921.8,913.2,917.6,913.2z
			 M926.6,902.4v-27.9c0-0.4-0.2-0.7-0.7-0.7h-14.3c-2.7,0-4.8,0.8-6.3,2.4s-2.2,3.8-2.2,6.5V902c0,2.8,0.7,4.9,2.2,6.5
			c1.5,1.6,3.6,2.4,6.3,2.4h5.9c2.7,0,4.9-0.7,6.6-2.2C925.7,907.2,926.6,905.1,926.6,902.4z"/>
		<path class="st1" d="M943.9,913.2h-1.1c-0.4,0-0.7-0.2-0.7-0.7v-40.1c0-0.5,0.2-0.7,0.7-0.7h1.1c0.4,0,0.7,0.2,0.7,0.7v3.5h0.3
			c1.5-2.8,4.4-4.2,8.6-4.2h3.6c4.8,0,8.1,1.9,9.9,5.8c0.8-1.9,2.2-3.3,4.2-4.3s4.1-1.5,6.2-1.5h3.3c3.3,0,6,1,8,3c2,2,3,4.7,3,8.1
			v29.8c0,0.5-0.2,0.7-0.7,0.7h-1.1c-0.4,0-0.7-0.2-0.7-0.7v-29.7c0-2.8-0.7-4.9-2.2-6.5c-1.5-1.6-3.6-2.4-6.3-2.4h-3.3
			c-2.8,0-5,0.8-6.7,2.4c-1.7,1.6-2.6,3.8-2.6,6.5v29.7c0,0.5-0.2,0.7-0.7,0.7h-1.1c-0.4,0-0.7-0.2-0.7-0.7v-29.7
			c0-2.8-0.7-4.9-2.2-6.5s-3.6-2.4-6.3-2.4h-3.4c-2.7,0-4.9,0.7-6.6,2.2c-1.7,1.5-2.5,3.6-2.5,6.3v30.1
			C944.5,912.9,944.3,913.2,943.9,913.2z"/>
		<path class="st1" d="M1031,913.2h-16.7c-3.3,0-6-1-8-3c-2-2-3-4.7-3-8.1v-19.4c0-3.4,1-6.1,3-8.1c2-2,4.6-3,8-3h7.2c3.3,0,6,1,8,3
			c2,2,3,4.7,3,8.1V893c0,0.5-0.2,0.8-0.7,0.8h-25.1c-0.5,0-0.7,0.2-0.7,0.7v7.5c0,2.8,0.7,4.9,2.2,6.5c1.5,1.6,3.6,2.4,6.3,2.4
			h16.7c0.5,0,0.7,0.2,0.7,0.7v1C1031.7,912.9,1031.5,913.2,1031,913.2z M1006.5,891.5h22.7c0.5,0,0.7-0.2,0.7-0.7v-8.2
			c0-2.8-0.7-4.9-2.2-6.5s-3.6-2.4-6.3-2.4h-7.2c-2.7,0-4.8,0.8-6.3,2.4s-2.2,3.8-2.2,6.5v8.2C1005.8,891.3,1006,891.5,1006.5,891.5
			z"/>
		<path class="st1" d="M1083.6,913.2h-6c-3.3,0-6-1-8-3c-2-2-3-4.7-3-8.1v-29.8c0-0.5,0.2-0.7,0.7-0.7h1.1c0.4,0,0.7,0.2,0.7,0.7
			V902c0,2.8,0.7,4.9,2.2,6.5c1.5,1.6,3.6,2.4,6.3,2.4h5.9c2.7,0,4.9-0.7,6.6-2.2c1.7-1.5,2.5-3.6,2.5-6.3v-30.1
			c0-0.5,0.2-0.7,0.7-0.7h1.1c0.4,0,0.7,0.2,0.7,0.7v40.1c0,0.5-0.2,0.7-0.7,0.7h-1.1c-0.4,0-0.7-0.2-0.7-0.7v-3.5h-0.3
			C1090.7,911.7,1087.8,913.2,1083.6,913.2z"/>
		<path class="st1" d="M1120.9,913.2h-13.9c-0.5,0-0.7-0.2-0.7-0.7v-1c0-0.4,0.2-0.7,0.7-0.7h13.9c5.5,0,8.2-2.2,8.2-6.5v-2.4
			c0-2-0.4-3.6-1.1-4.9c-0.7-1.3-2-2.2-3.8-2.9l-10.8-3.8c-2.8-1-4.8-2.2-5.9-3.6c-1.1-1.4-1.7-3.5-1.7-6.1c0-6.1,3.3-9.1,10-9.1
			h13.1c0.5,0,0.7,0.2,0.7,0.7v1c0,0.4-0.2,0.7-0.7,0.7h-13.1c-2.5,0-4.4,0.6-5.6,1.7s-1.8,2.4-1.8,3.9v2.2c0,1.7,0.4,3.1,1.3,4
			c0.9,1,2.3,1.8,4.2,2.4l10.7,3.8c2.9,0.8,4.8,2.1,5.6,4c0.9,1.8,1.3,4.4,1.3,7.7c0,3.3-0.9,5.7-2.6,7.2
			C1127.3,912.4,1124.6,913.2,1120.9,913.2z"/>
		<path class="st1" d="M1143.5,864.8v-8.1c0-0.5,0.2-0.7,0.7-0.7h1.1c0.4,0,0.7,0.2,0.7,0.7v8.1c0,0.5-0.2,0.7-0.7,0.7h-1.1
			C1143.7,865.5,1143.5,865.3,1143.5,864.8z M1143.5,912.4v-40.1c0-0.5,0.2-0.7,0.7-0.7h1.1c0.4,0,0.7,0.2,0.7,0.7v40.1
			c0,0.5-0.2,0.7-0.7,0.7h-1.1C1143.7,913.2,1143.5,912.9,1143.5,912.4z"/>
		<path class="st1" d="M1161.2,913.2h-1.1c-0.4,0-0.7-0.2-0.7-0.7v-40.1c0-0.5,0.2-0.7,0.7-0.7h1.1c0.4,0,0.7,0.2,0.7,0.7v3.5h0.3
			c1.5-2.8,4.4-4.2,8.6-4.2h6c3.3,0,6,1,8,3c2,2,3,4.7,3,8.1v29.8c0,0.5-0.2,0.7-0.7,0.7h-1.1c-0.4,0-0.7-0.2-0.7-0.7v-29.7
			c0-2.8-0.7-4.9-2.2-6.5c-1.5-1.6-3.6-2.4-6.3-2.4h-5.9c-2.7,0-4.9,0.7-6.6,2.2c-1.7,1.5-2.5,3.6-2.5,6.3v30.1
			C1161.8,912.9,1161.6,913.2,1161.2,913.2z"/>
		<path class="st1" d="M1216.9,910.7h-6c-3.3,0-6-1-8-3c-2-2-3-4.7-3-8.1v-17c0-3.4,1-6.1,3-8.1c2-2,4.6-3,8-3h16.8
			c0.4,0,0.7,0.2,0.7,0.7v40.6c0,3.4-1,6.1-3,8.1c-2,2-4.6,3-8,3h-14.6c-0.5,0-0.7-0.2-0.7-0.7v-1c0-0.4,0.2-0.7,0.7-0.7h14.6
			c2.7,0,4.8-0.8,6.3-2.4c1.5-1.6,2.2-3.8,2.2-6.5v-6.4h-0.3C1224.1,909.3,1221.2,910.7,1216.9,910.7z M1225.9,899.9v-25.4
			c0-0.4-0.2-0.7-0.7-0.7h-14.3c-2.7,0-4.8,0.8-6.3,2.4s-2.2,3.8-2.2,6.5v16.8c0,2.8,0.7,4.9,2.2,6.5s3.6,2.4,6.3,2.4h5.9
			c2.7,0,4.9-0.7,6.6-2.2C1225.1,904.8,1225.9,902.7,1225.9,899.9z"/>
		<path class="st1" d="M1289.2,860.7h1.1c0.4,0,0.7,0.2,0.7,0.7v40.7c0,3.4-1,6.1-3,8.1c-2,2-4.6,3-8,3h-8.2c-3.3,0-6-1-8-3
			c-2-2-3-4.7-3-8.1v-6.5c0-0.5,0.2-0.7,0.7-0.7h1.1c0.4,0,0.7,0.2,0.7,0.7v6.4c0,2.8,0.7,4.9,2.2,6.5c1.5,1.6,3.6,2.4,6.3,2.4h8.2
			c2.7,0,4.8-0.8,6.3-2.4c1.5-1.6,2.2-3.8,2.2-6.5v-40.5C1288.6,861,1288.8,860.7,1289.2,860.7z"/>
		<path class="st1" d="M1305.3,902.1v-3.3c0-0.5,0.2-0.7,0.7-0.7h1.1c0.4,0,0.7,0.2,0.7,0.7v3.2c0,2.8,0.7,4.9,2.2,6.5
			c1.5,1.6,3.6,2.4,6.3,2.4h9.8c2.7,0,4.8-0.8,6.3-2.4c1.5-1.6,2.2-3.8,2.2-6.5v-4.1c0-2.6-1-4.6-3-6.1c-2-1.5-4.4-2.6-7.3-3.3
			c-2.9-0.7-5.7-1.4-8.6-2c-2.9-0.7-5.3-1.8-7.3-3.4s-3-3.7-3-6.4v-4.9c0-3.4,1-6.1,3-8.1c2-2,4.6-3,8-3h9.8c3.3,0,6,1,8,3
			c2,2,3,4.7,3,8.1v2.4c0,0.5-0.2,0.7-0.7,0.7h-1.1c-0.4,0-0.7-0.2-0.7-0.7v-2.4c0-2.8-0.7-4.9-2.2-6.5c-1.5-1.6-3.6-2.4-6.3-2.4
			h-9.8c-2.7,0-4.8,0.8-6.3,2.4c-1.5,1.6-2.2,3.8-2.2,6.5v4.7c0,4,3.4,6.8,10.3,8.3c2.9,0.6,5.8,1.3,8.6,2c2.9,0.7,5.3,2,7.3,3.8
			c2,1.8,3,4.1,3,7.1v4.3c0,3.4-1,6.1-3,8.1c-2,2-4.6,3-8,3h-9.8c-3.3,0-6-1-8-3C1306.3,908.1,1305.3,905.4,1305.3,902.1z"/>
		<path class="st1" d="M1391.5,913.2h-6.9c-3.3,0-6-1-8-2.9c-2-1.9-3-4.6-3-8v-7.5c0-2.7,0.7-5.1,2.1-7.1c1.4-2,3.6-3,6.6-3.1
			c-2.6-3.1-3.9-6.3-3.9-9.6v-3.5c0-3.4,1-6,3-8c2-1.9,4.6-2.9,8-2.9h1.8c3.3,0,6,1,8,2.9c2,1.9,3,4.6,3,8v4c0,0.5-0.2,0.7-0.7,0.7
			h-1.1c-0.4,0-0.7-0.2-0.7-0.7v-3.9c0-2.8-0.7-4.9-2.2-6.4c-1.5-1.5-3.6-2.2-6.3-2.2h-1.8c-2.7,0-4.8,0.7-6.3,2.2
			c-1.5,1.5-2.2,3.6-2.2,6.4v3.3c0,1.8,0.2,3.3,0.7,4.5s1.4,2.6,2.8,4l5.5,6.3h19.9c0.5,0,0.7,0.2,0.7,0.7v1c0,0.4-0.2,0.7-0.7,0.7
			h-17.9l17.8,20.6c0.1,0.2,0.1,0.4-0.2,0.5h-1.5c-0.4,0-0.7-0.2-1.1-0.5l-5.1-5.9c-0.7,2-2,3.6-3.8,4.7
			C1396.1,912.6,1394,913.2,1391.5,913.2z M1384.6,910.9h6.9c4.7,0,7.5-2.1,8.2-6.3l-16-18.4c-2.5,0.2-4.4,1-5.7,2.5
			c-1.3,1.5-2,3.5-2,6.2v7.3c0,2.8,0.7,4.9,2.2,6.4C1379.7,910.1,1381.8,910.9,1384.6,910.9z"/>
		<path class="st1" d="M1442.4,913.2h-1.1c-0.5,0-0.7-0.2-0.5-0.7l17.1-51c0.2-0.5,0.4-0.7,0.8-0.7h2c0.4,0,0.7,0.2,0.8,0.7l17.1,51
			c0.2,0.5,0,0.7-0.5,0.7h-1.2c-0.4,0-0.7-0.2-0.8-0.7l-5-14.2h-22.8l-5,14.2C1443.1,912.9,1442.8,913.2,1442.4,913.2z
			 M1459.5,863.8l-10.4,32h21l-10.4-32H1459.5z"/>
		<path class="st1" d="M1489.4,913.2h-1.1c-0.4,0-0.7-0.2-0.7-0.7v-40.1c0-0.5,0.2-0.7,0.7-0.7h1.1c0.4,0,0.7,0.2,0.7,0.7v3.7h0.3
			c0.6-1.1,1.6-2.1,3.1-3c1.5-0.9,3.4-1.4,5.8-1.4h3.3c0.5,0,0.7,0.2,0.7,0.7v1c0,0.4-0.2,0.7-0.7,0.7h-3.3c-2.8,0-5,0.9-6.7,2.6
			c-1.7,1.7-2.5,4.1-2.5,7.1v28.9C1490.1,912.9,1489.9,913.2,1489.4,913.2z"/>
		<path class="st1" d="M1528.5,913.2h-6c-3.3,0-6-1-8-3c-2-2-3-4.7-3-8.1v-19.4c0-3.4,1-6.1,3-8.1c2-2,4.6-3,8-3h6
			c4.2,0,7.1,1.4,8.6,4.2h0.3v-19.3c0-0.5,0.2-0.7,0.7-0.7h1.1c0.4,0,0.7,0.2,0.7,0.7v55.9c0,0.5-0.2,0.7-0.7,0.7h-1.1
			c-0.4,0-0.7-0.2-0.7-0.7v-3.5h-0.3C1535.6,911.7,1532.8,913.2,1528.5,913.2z M1537.5,902.4v-20.1c0-2.7-0.8-4.8-2.5-6.3
			c-1.7-1.5-3.9-2.2-6.6-2.2h-5.9c-2.7,0-4.8,0.8-6.3,2.4s-2.2,3.8-2.2,6.5V902c0,2.8,0.7,4.9,2.2,6.5c1.5,1.6,3.6,2.4,6.3,2.4h5.9
			c2.7,0,4.9-0.7,6.6-2.2C1536.6,907.2,1537.5,905.1,1537.5,902.4z"/>
		<path class="st1" d="M1569.5,913.2h-6c-3.3,0-6-1-8-3c-2-2-3-4.7-3-8.1v-29.8c0-0.5,0.2-0.7,0.7-0.7h1.1c0.4,0,0.7,0.2,0.7,0.7
			V902c0,2.8,0.7,4.9,2.2,6.5c1.5,1.6,3.6,2.4,6.3,2.4h5.9c2.7,0,4.9-0.7,6.6-2.2c1.7-1.5,2.5-3.6,2.5-6.3v-30.1
			c0-0.5,0.2-0.7,0.7-0.7h1.1c0.4,0,0.7,0.2,0.7,0.7v40.1c0,0.5-0.2,0.7-0.7,0.7h-1.1c-0.4,0-0.7-0.2-0.7-0.7v-3.5h-0.3
			C1576.7,911.7,1573.8,913.2,1569.5,913.2z"/>
		<path class="st1" d="M1594.4,864.8v-8.1c0-0.5,0.2-0.7,0.7-0.7h1.1c0.4,0,0.7,0.2,0.7,0.7v8.1c0,0.5-0.2,0.7-0.7,0.7h-1.1
			C1594.6,865.5,1594.4,865.3,1594.4,864.8z M1594.4,912.4v-40.1c0-0.5,0.2-0.7,0.7-0.7h1.1c0.4,0,0.7,0.2,0.7,0.7v40.1
			c0,0.5-0.2,0.7-0.7,0.7h-1.1C1594.6,913.2,1594.4,912.9,1594.4,912.4z"/>
		<path class="st1" d="M1612.1,913.2h-1.1c-0.4,0-0.7-0.2-0.7-0.7v-40.1c0-0.5,0.2-0.7,0.7-0.7h1.1c0.4,0,0.7,0.2,0.7,0.7v3.5h0.3
			c1.5-2.8,4.4-4.2,8.6-4.2h6c3.3,0,6,1,8,3c2,2,3,4.7,3,8.1v29.8c0,0.5-0.2,0.7-0.7,0.7h-1.1c-0.4,0-0.7-0.2-0.7-0.7v-29.7
			c0-2.8-0.7-4.9-2.2-6.5c-1.5-1.6-3.6-2.4-6.3-2.4h-5.9c-2.7,0-4.9,0.7-6.6,2.2c-1.7,1.5-2.5,3.6-2.5,6.3v30.1
			C1612.8,912.9,1612.6,913.2,1612.1,913.2z"/>
		<path class="st1" d="M1668.4,913.2h-6.9c-3.3,0-6-1-8-3c-2-2-3-4.7-3-8.1v-19.4c0-3.4,1-6.1,3-8.1c2-2,4.6-3,8-3h6.9
			c3.3,0,6,1,8,3c2,2,3,4.7,3,8.1v19.4c0,3.4-1,6.1-3,8.1C1674.4,912.2,1671.7,913.2,1668.4,913.2z M1661.5,910.9h6.9
			c2.7,0,4.8-0.8,6.3-2.4c1.5-1.6,2.2-3.8,2.2-6.5v-19.3c0-2.8-0.7-4.9-2.2-6.5c-1.5-1.6-3.6-2.4-6.3-2.4h-6.9
			c-2.7,0-4.8,0.8-6.3,2.4c-1.5,1.6-2.2,3.8-2.2,6.5V902c0,2.8,0.7,4.9,2.2,6.5C1656.7,910.1,1658.7,910.9,1661.5,910.9z"/>
	</g>
</g>
<g>
	<g>
		<g>
			<path class="st1" d="M678.7,735.8h-2.2c-0.8,0-1.2-0.5-1.2-1.4v-96.9c0-0.9,0.4-1.4,1.2-1.4h47.3c0.9,0,1.4,0.4,1.4,1.2v1.9
				c0,0.8-0.5,1.2-1.4,1.2h-42.5c-0.9,0-1.4,0.4-1.4,1.2v41.3c0,0.8,0.5,1.2,1.4,1.2h38.3c0.9,0,1.4,0.4,1.4,1.2v1.9
				c0,0.8-0.5,1.2-1.4,1.2h-38.3c-0.9,0-1.4,0.4-1.4,1.2v44.7C679.9,735.3,679.5,735.8,678.7,735.8z"/>
			<path class="st1" d="M749.5,735.8h-2.2c-0.8,0-1.2-0.5-1.2-1.4V628.1c0-0.9,0.4-1.4,1.2-1.4h2.2c0.8,0,1.2,0.5,1.2,1.4v106.2
				C750.8,735.3,750.4,735.8,749.5,735.8z"/>
			<path class="st1" d="M807.1,735.8h-11.5c-6.3,0-11.3-1.9-15.1-5.7c-3.8-3.8-5.7-8.9-5.7-15.4v-36.9c0-6.4,1.9-11.5,5.7-15.4
				c3.8-3.8,8.8-5.7,15.1-5.7h32c0.8,0,1.2,0.5,1.2,1.4v76.3c0,0.9-0.4,1.4-1.2,1.4h-2.2c-0.8,0-1.2-0.5-1.2-1.4v-6.7h-0.6
				C820.6,733.1,815.2,735.8,807.1,735.8z M824.2,715.3v-53c0-0.8-0.5-1.2-1.4-1.2h-27.1c-5.2,0-9.2,1.5-11.9,4.5
				c-2.8,3-4.2,7.1-4.2,12.4v36.6c0,5.3,1.4,9.4,4.2,12.4c2.8,3,6.8,4.5,11.9,4.5h11.2c5.2,0,9.4-1.4,12.6-4.2
				C822.5,724.4,824.2,720.5,824.2,715.3z"/>
			<path class="st1" d="M857,759.5h-2.2c-0.8,0-1.2-0.5-1.2-1.4v-100c0-0.9,0.4-1.4,1.2-1.4h2.2c0.8,0,1.2,0.5,1.2,1.4v6.7h0.6
				c2.9-5.4,8.4-8.1,16.4-8.1h11.5c6.3,0,11.3,1.9,15.1,5.7c3.8,3.8,5.7,8.9,5.7,15.4v36.9c0,6.4-1.9,11.5-5.7,15.4
				c-3.8,3.8-8.8,5.7-15.1,5.7h-11.5c-8.1,0-13.5-2.7-16.4-8.1h-0.6v30.4C858.3,759,857.9,759.5,857,759.5z M875.6,731.4h11.2
				c5.2,0,9.2-1.5,11.9-4.5c2.8-3,4.2-7.1,4.2-12.4v-36.6c0-5.3-1.4-9.4-4.2-12.4c-2.8-3-6.8-4.5-11.9-4.5h-11.2
				c-5.2,0-9.4,1.4-12.6,4.2c-3.2,2.8-4.8,6.8-4.8,11.9v38.2c0,5.2,1.6,9.2,4.8,11.9C866.3,730,870.5,731.4,875.6,731.4z"/>
			<path class="st1" d="M934.3,759.5h-2.2c-0.8,0-1.2-0.5-1.2-1.4v-100c0-0.9,0.4-1.4,1.2-1.4h2.2c0.8,0,1.2,0.5,1.2,1.4v6.7h0.6
				c2.9-5.4,8.4-8.1,16.4-8.1h11.5c6.3,0,11.3,1.9,15.1,5.7c3.8,3.8,5.7,8.9,5.7,15.4v36.9c0,6.4-1.9,11.5-5.7,15.4
				c-3.8,3.8-8.8,5.7-15.1,5.7h-11.5c-8.1,0-13.5-2.7-16.4-8.1h-0.6v30.4C935.5,759,935.1,759.5,934.3,759.5z M952.9,731.4h11.2
				c5.2,0,9.2-1.5,11.9-4.5c2.8-3,4.2-7.1,4.2-12.4v-36.6c0-5.3-1.4-9.4-4.2-12.4c-2.8-3-6.8-4.5-11.9-4.5h-11.2
				c-5.2,0-9.4,1.4-12.6,4.2c-3.2,2.8-4.8,6.8-4.8,11.9v38.2c0,5.2,1.6,9.2,4.8,11.9C943.5,730,947.7,731.4,952.9,731.4z"/>
			<path class="st1" d="M1004.8,758.6c-0.9,0-1.4-0.4-1.4-1.2v-1.9c0-0.8,0.5-1.2,1.4-1.2h4.5c4.1,0,7.1-0.8,8.8-2.2
				c1.7-1.5,3-2.6,3.8-3.3c0.8-0.7,1.7-2,2.7-4c1-2,1.6-3.3,1.9-4c1.9-4.1,3-7.2,3.6-9.2h-1.6c-0.8,0-1.4-0.5-1.7-1.4l-26.4-72.1
				c-0.3-0.9,0-1.4,0.9-1.4h2.5c0.7,0,1.2,0.5,1.6,1.4l25.3,69h0.6l25.3-69c0.3-0.9,0.8-1.4,1.6-1.4h2.5c0.9,0,1.2,0.5,0.9,1.4
				l-26.4,72.1c-3.2,9.2-5.6,15.1-7.3,17.8c-4.4,6.9-10.7,10.4-18.6,10.5H1004.8z"/>
			<path class="st2" d="M1130.6,735.8h-50.3c-1.8,0-2.6-0.9-2.6-2.6v-94.5c0-1.8,0.9-2.6,2.6-2.6h9.8c1.8,0,2.6,0.9,2.6,2.6v82.1
				c0,1,0.6,1.6,1.9,1.6h36c1.8,0,2.6,0.9,2.6,2.8v8.1C1133.3,734.9,1132.4,735.8,1130.6,735.8z"/>
			<path class="st2" d="M1146.8,643.5v-14.1c0-1.7,0.8-2.5,2.5-2.5h10.1c1.7,0,2.5,0.8,2.5,2.5v14.1c0,1.8-0.8,2.6-2.5,2.6h-10.1
				C1147.6,646.1,1146.8,645.2,1146.8,643.5z M1146.8,733.1v-73.8c0-1.8,0.8-2.6,2.5-2.6h9.9c1.8,0,2.6,0.9,2.6,2.6v73.8
				c0,1-0.2,1.7-0.5,2.1c-0.4,0.4-1,0.5-1.9,0.5h-9.9C1147.6,735.8,1146.8,734.9,1146.8,733.1z"/>
			<path class="st2" d="M1211,731.9h-7c-7.4,0-13.2-2.1-17.1-6.3c-4-4.2-6-10.1-6-17.8v-27.1c0-7.7,2.1-13.6,6.4-17.8
				c4.2-4.2,10.1-6.3,17.7-6.3h34.7c1.9,0,2.8,0.9,2.8,2.6v76.8c0,7.5-2.1,13.4-6.4,17.6c-4.3,4.2-10.2,6.3-17.8,6.3h-29.2
				c-1.8,0-2.6-0.8-2.6-2.5v-8.1c0-1.8,0.9-2.6,2.6-2.6h26.8c7.5,0,11.3-3.8,11.3-11.5v-11.8h-0.6
				C1224.1,729.1,1218.8,731.9,1211,731.9z M1227.3,705.5v-34.1c0-1-0.6-1.6-1.7-1.6h-18.5c-7.3,0-11,3.8-11,11.5v25.7
				c0,7.7,3.7,11.5,11,11.5h7.4C1223,718.5,1227.3,714.2,1227.3,705.5z"/>
			<path class="st2" d="M1274.3,735.8h-9.8c-1.8,0-2.6-0.9-2.6-2.6V629.4c0-1.8,0.9-2.6,2.6-2.6h9.8c1.8,0,2.6,0.9,2.6,2.6v35.5h0.6
				c2.5-5.5,7.7-8.2,15.7-8.2h6.8c7.5,0,13.3,2.1,17.4,6.2c4,4.1,6,10.1,6,17.8v52.4c0,1.8-0.9,2.6-2.8,2.6h-9.8
				c-1.8,0-2.6-0.9-2.6-2.6v-51.8c0-7.7-3.8-11.5-11.3-11.5h-7.3c-8.5,0-12.7,4.4-12.7,13.2v50.1
				C1276.9,734.9,1276,735.8,1274.3,735.8z"/>
			<path class="st2" d="M1344.4,669.8h-7.4c-1,0-1.7-0.2-2.1-0.5c-0.4-0.4-0.5-1-0.5-1.9v-8.1c0-1.8,0.9-2.6,2.6-2.6h7.4
				c1,0,1.6-0.5,1.6-1.6v-14c0-1.8,0.9-2.6,2.8-2.6h9.8c1.8,0,2.6,0.9,2.6,2.6v14c0,1,0.6,1.6,1.7,1.6h14.4c1.9,0,2.8,0.9,2.8,2.6
				v8.1c0,1.7-0.9,2.5-2.8,2.5h-14.4c-1.1,0-1.7,0.5-1.7,1.6v39.9c0,7.5,3.9,11.3,11.6,11.3h6c1.9,0,2.8,0.9,2.8,2.6v8.1
				c0,1.7-0.9,2.5-2.8,2.5h-8.4c-7.7,0-13.6-2.1-18-6.2c-4.3-4.1-6.5-10-6.5-17.5v-40.6C1345.9,670.4,1345.4,669.8,1344.4,669.8z"/>
		</g>
	</g>
	<g>
		<g>
			<path class="st1" d="M1014.9,456.6L753.4,219l7.8,55.5c12.1,86.6,76,157.1,161.2,177.2l84.5,20.1c4.9,1.1,9.7-1.9,10.8-6.8
				C1018.3,462.1,1017.2,458.7,1014.9,456.6z"/>
		</g>
		<g>
			<path class="st1" d="M993.5,504.7l-124.9,85.6l6.6-23.3c10.2-36,41.5-62.3,78.8-65.9l37.1-3.6c2.1-0.2,4,1.5,4.2,3.6
				C995.4,502.3,994.8,503.8,993.5,504.7z"/>
		</g>
		<g>
			<path class="st1" d="M1030.4,465.1c1.1,4.9,5.9,7.8,10.8,6.8l84.5-20.1c85.1-20.1,149.1-90.6,161.2-177.2l7.8-55.5l-261.5,237.6
				C1030.8,458.7,1029.7,462.1,1030.4,465.1z"/>
		</g>
		<g>
			<path class="st1" d="M1052.8,501.1c0.2-2.1,2.1-3.8,4.2-3.6l37.1,3.6c37.3,3.6,68.6,29.9,78.8,65.9l6.6,23.3l-124.9-85.6
				C1053.2,503.8,1052.6,502.3,1052.8,501.1z"/>
		</g>
		<g>
			<circle class="st3" cx="1024" cy="483.3" r="80.7"/>
		</g>
		<g>
			<circle class="st2" cx="1024" cy="483.3" r="53.8"/>
		</g>
	</g>
</g>
</svg>
