<svg id="Camada_1" data-name="Camada 1" xmlns="http://www.w3.org/2000/svg" width="181" height="183" viewBox="0 0 181.77 183.6"><defs><style>.cls-1{fill:#deebff;}.cls-2{fill:#00c6d9;}.cls-3{fill:#31f1d9;}.cls-4{fill:#fff;}</style></defs><title>Prancheta 12</title><path class="cls-1" d="M139.18,112.69,15.12,0l3.67,26.35A100.75,100.75,0,0,0,95.2,110.45L135.31,120A4.28,4.28,0,0,0,139.18,112.69Z"/><path class="cls-1" d="M129.43,135.33,76.28,183.6l1.57-11.29a43.16,43.16,0,0,1,32.73-36l17.19-4.1A1.83,1.83,0,0,1,129.43,135.33Z"/><circle class="cls-2" cx="143.5" cy="125.3" r="38.27"/><circle class="cls-3" cx="143.5" cy="125.3" r="25.54"/><path class="cls-4" d="M138.36,112.44,0,17.84l7.26,25.6a100.75,100.75,0,0,0,87.22,72.81l41,4A4.28,4.28,0,0,0,138.36,112.44Z"/><path class="cls-4" d="M129.07,135.44,69.8,176l3.11-11a43.16,43.16,0,0,1,37.37-31.19l17.59-1.7A1.83,1.83,0,0,1,129.07,135.44Z"/></svg>