<svg class="Enemy" width="80" height="80" viewBox="0 0 106.6 106.6" style="enable-background:new 0 0 106.6 106.6;" xml:space="preserve">
	<circle class="bounce st0" cx="53.3" cy="53.3" r="36.5"/>
	<g class="spin">
		<g class="spike">
			<polygon class="st0" points="47.3,36.8 45.5,34.5 52.5,0 61.1,34.4 59.3,36.8"/>
			<polygon class="st1" points="47.3,34.9 52.8,8.3 59.3,34.9"/>
		</g>
		<g class="spike">
			<polygon class="st0" points="59.3,69.8 61.1,72.1 54.1,106.6 45.5,72.2 47.3,69.8"/>
			<polygon class="st1" points="59.3,71.7 53.8,98.3 47.3,71.7"/>
		</g>
		
		<g class="spike">
			<polygon class="st0" points="69.8,47.3 72.1,45.5 106.6,52.5 72.2,61.1 69.8,59.3"/>
			<polygon class="st1" points="71.7,47.3 98.3,52.8 71.7,59.3"/>
		</g>
		<g class="spike">
			<polygon class="st0" points="36.8,59.3 34.5,61.1 0,54.1 34.4,45.5 36.8,47.3"/>
			<polygon class="st1" points="34.9,59.3 8.3,53.8 34.9,47.3"/>
		</g>
	</g>
	<circle class="bounce st1" cx="53.3" cy="53.3" r="34"/>
	<circle class="st0" cx="53.3" cy="53.3" r="25.4"/>
	<g class="bounce delay-1">
		<path class="st2" d="M57.3,65.1l14.5-12.5v0c1.4,7.4-5,14-12.4,12.8L57.3,65.1z"/>
		<path class="st2" d="M49.3,65.1L34.8,52.6v0c-1.4,7.4,5,14,12.4,12.8L49.3,65.1z"/>
	</g>
</svg>
