<?xml version="1.0" encoding="utf-8"?>
<!-- Generator: Adobe Illustrator 21.0.2, SVG Export Plug-In . SVG Version: 6.00 Build 0)  -->
<svg version="1.1" id="Camada_1" xmlns="http://www.w3.org/2000/svg" xmlns:xlink="http://www.w3.org/1999/xlink" x="0px" y="0px" width="258" height="66"
	 viewBox="0 0 258.7 66.7" style="enable-background:new 0 0 258.7 66.7;" xml:space="preserve">
<style type="text/css">
	.st0{fill:#00244C;}
	.st1{fill:#002467;}
	.st2{fill:#0057D9;}
</style>
<title>Prancheta 13</title>
<path class="st0" d="M0,42.3h14.4c8.8,0,17-4.5,22.4-12.1l12.8-18.2C55,4.5,63.2,0,72,0h33.4c3.8,0,7.6,0.8,11,2.5L149,17.6
	c5,2.3,9.3,6.2,12.4,11.1l0,0c5.3,8.5,14,13.6,23.4,13.6h8.9c8,0,15.5-3.9,20.6-10.6l0,0c5.1-6.7,12.7-10.6,20.6-10.6h0
	c1.7,0,3.3,0.7,4.4,2l8.2,9.1c1.2,1.3,1.8,3.1,1.8,4.9l0,0c0,3.8,2.8,6.9,6.3,6.9h3.1v22.7H0V42.3z"/>
<path class="st1" d="M258.7,44v0.1l-7.3,4.5c-0.5,0.3-1.2,0.2-1.5-0.4c0,0,0,0,0,0l-3-4.8c-0.2-0.3-0.5-0.5-0.8-0.6l-6.7-0.9
	c-0.7-0.1-1.2-0.9-1-1.6l2.7-10.8l-9.6-0.9c-0.3,0-0.7,0.1-0.9,0.4l-19,19.9c-0.2,0.2-0.5,0.4-0.8,0.4h-45.9c-1.4,0-1.6-2.1-0.4-2.5
	l0,0c1.3-0.4,1-2.5-0.3-2.5l-38.9-2.7h-0.1l0,0c-9.5-1.5-18.7-4.9-26.9-9.9l-7.6-4.6l23,8c0.2,0.1,0.5,0.1,0.8,0l19.4-7.7
	c1.1-0.4,1-2.2-0.2-2.5l-36.4-8c-13.3-2.9-27-3-40.3-0.1l-12.6,2.7l5.1-7.2C55,4.5,63.2,0,72,0h33.4c3.8,0,7.6,0.8,11,2.5L149,17.6
	c5,2.3,9.3,6.2,12.4,11.1c2.5,4.1,6,7.5,10.2,10c4,2.4,8.6,3.6,13.2,3.6h8.9c8,0,15.5-3.9,20.6-10.6c2.5-3.3,5.6-5.9,9.2-7.8
	c3.5-1.8,7.4-2.8,11.4-2.8h0c1.7,0,3.3,0.7,4.4,2l8.2,9.1c1.2,1.3,1.8,3.1,1.8,4.9c0,1.8,0.6,3.5,1.8,4.9c1.1,1.3,2.7,2,4.4,2
	L258.7,44z"/>
<path class="st2" d="M136,40.9c-3.1-0.9-6.2-1.9-9.3-2.7c-2.7-0.7-5.5-1.3-8.3-1.6c-1.4-0.2-3.5-0.3-4.6-1.6l-23-8l7.6,4.6
	c4.1,2.5,8.5,4.6,13,6.3c4.5,1.7,9.1,2.9,13.9,3.6h0.1l16.8,1.2C140.1,42,138,41.5,136,40.9z"/>
<path class="st2" d="M258.7,44h-3.1c-1.7,0-3.3-0.7-4.4-2c-1.2-1.3-1.8-3.1-1.8-4.9c0-1.8-0.6-3.5-1.8-4.9l-8.2-9.1
	c-1.1-1.3-2.7-2-4.4-2h0c-4,0-7.9,1-11.4,2.8c-3.6,1.9-6.8,4.5-9.3,7.8c-5.1,6.7-12.7,10.6-20.6,10.6h-8.9c-4.6,0-9.2-1.3-13.2-3.6
	c-4.2-2.4-7.7-5.9-10.2-10c-3.1-4.9-7.4-8.8-12.4-11.1L116.5,2.5c-3.5-1.6-7.2-2.5-11-2.5H72c-8.8,0-17,4.5-22.4,12.1l-5,7.2
	l1.1-0.2l2.8-4C53.8,7.4,62,3,70.8,3h33.4c3.8,0,7.6,0.8,11,2.5l32.5,15.1c5,2.3,9.3,6.2,12.4,11.1c2.5,4.1,6,7.5,10.2,10
	c4,2.4,8.6,3.6,13.2,3.6h8.9c8,0,15.5-3.9,20.6-10.6c2.5-3.3,5.6-5.9,9.3-7.8c3.5-1.8,7.4-2.8,11.4-2.8h0c1.7,0,3.3,0.7,4.4,2
	l8.2,9.1c1.2,1.3,1.8,3.1,1.8,4.9c0,1.8,0.6,3.5,1.8,4.9c1,1.2,2.5,1.9,4.1,2l4.6-2.8L258.7,44z"/>
</svg>
