<?xml version="1.0" encoding="utf-8"?>
<!-- Generator: Adobe Illustrator 21.0.2, SVG Export Plug-In . SVG Version: 6.00 Build 0)  -->
<svg version="1.1" id="Camada_1" xmlns="http://www.w3.org/2000/svg" xmlns:xlink="http://www.w3.org/1999/xlink" x="0px" y="0px"
	 viewBox="0 0 234 288" style="enable-background:new 0 0 234 288;" xml:space="preserve">
<style type="text/css">
	.st0{fill:#DEEBFF;}
	.st1{fill:#00C6D9;}
	.st2{fill:#31F1D9;}
	.st3{fill:#FFFFFF;}
</style>
<title>Prancheta 12</title>
<path class="st0" d="M191.6,169.8L68.1,57.6l3.7,26.2c5.7,40.9,35.9,74.2,76.1,83.7l39.9,9.5c2.3,0.5,4.6-0.9,5.1-3.2
	C193.2,172.4,192.7,170.8,191.6,169.8z"/>
<path class="st0" d="M181.9,192.3L129,240.4l1.6-11.2c2.5-17.5,15.4-31.7,32.6-35.8l17.1-4.1c1-0.2,2,0.4,2.2,1.4
	C182.6,191.2,182.4,191.9,181.9,192.3z"/>
<circle class="st1" cx="195.9" cy="182.4" r="38.1"/>
<circle class="st2" cx="195.9" cy="182.4" r="25.4"/>
<path class="st3" d="M190.8,169.6L53,75.4l7.2,25.5c11.3,39.7,45.7,68.5,86.9,72.5l40.8,4c2.3,0.3,4.5-1.4,4.7-3.7
	C192.8,172,192.1,170.4,190.8,169.6z"/>
<path class="st3" d="M181.5,192.5l-59,40.4l3.1-11c4.8-17,19.6-29.4,37.2-31.1l17.5-1.7c1-0.1,1.9,0.7,2,1.7
	C182.4,191.4,182.1,192.1,181.5,192.5z"/>
</svg>
