<svg id="Camada_1" data-name="Camada 1" xmlns="http://www.w3.org/2000/svg" viewBox="0 0 1080 278.27"><defs><style>.cls-1{fill:#00244c;}.cls-2{fill:#002467;}.cls-3{fill:#0057d9;}</style></defs><title>Prancheta 13</title><path class="cls-1" d="M0,176.73H60.21c36.54,0,71-18.62,93.43-50.43l53.42-75.86C229.47,18.62,264,0,300.5,0H440.12a108.87,108.87,0,0,1,46,10.27l135.78,63.2C642.8,83.2,660.71,99.33,673.52,120h0c22,35.52,58.58,56.76,97.62,56.76h37.09c33.22,0,64.75-16.17,86.15-44.18h0c21.4-28,52.92-44.18,86.15-44.18h.07a24.94,24.94,0,0,1,18.46,8.43l34.28,37.79a30.34,30.34,0,0,1,7.65,20.35h0c0,15.89,11.69,28.78,26.1,28.78H1080v94.57H0Z"/><path class="cls-2" d="M1080,183.71v.6L1049.49,203a4.66,4.66,0,0,1-6.48-1.71l-12.38-20.17a4.88,4.88,0,0,0-3.51-2.35l-27.93-3.62c-3-.39-5-3.62-4.18-6.83l11.15-45.07-40-3.67a4.66,4.66,0,0,0-3.8,1.47l-79.24,82.87a4.69,4.69,0,0,1-3.39,1.49H688.31c-5.65,0-6.86-8.76-1.47-10.62h0c5.22-1.8,4.3-10.23-1.16-10.61L523.31,172.87l-.38,0h0a307.8,307.8,0,0,1-112.3-41.24L379,112.39l96.14,33.55a4.5,4.5,0,0,0,3.16-.07l81-32.28c4.69-1.87,4.18-9.36-.71-10.44L406.79,69.69a395.58,395.58,0,0,0-168.22-.54L186,80.4l21.11-30C229.47,18.62,264,0,300.49,0H440.11a108.81,108.81,0,0,1,46,10.27l135.78,63.2c20.89,9.72,38.81,25.86,51.61,46.49A123,123,0,0,0,716,161.67a109.53,109.53,0,0,0,55.18,15.06h37.09c33.22,0,64.75-16.17,86.15-44.18A114.56,114.56,0,0,1,933,100a104,104,0,0,1,47.51-11.59h.07A24.93,24.93,0,0,1,999,96.79l34.28,37.8a30.33,30.33,0,0,1,7.64,20.35,30.26,30.26,0,0,0,7.64,20.35,24.89,24.89,0,0,0,18.46,8.43Z"/><path class="cls-3" d="M567.58,170.68c-13-3.56-25.78-7.94-38.77-11.41a281.71,281.71,0,0,0-34.64-6.87c-5.82-.79-14.8-1.28-19.23-6.51l-96-33.49,31.65,19.19a312.62,312.62,0,0,0,54.45,26.25,303.29,303.29,0,0,0,57.85,15l.38,0,70.3,4.9C584.94,175.38,576.26,173.05,567.58,170.68Z"/><path class="cls-3" d="M1080,183.71h-12.92a24.89,24.89,0,0,1-18.46-8.43,30.26,30.26,0,0,1-7.64-20.35,30.33,30.33,0,0,0-7.64-20.35L999,96.79a24.93,24.93,0,0,0-18.46-8.43h-.07A104,104,0,0,0,933,100a114.56,114.56,0,0,0-38.64,32.59c-21.4,28-52.92,44.18-86.15,44.18H771.14A109.53,109.53,0,0,1,716,161.67,123,123,0,0,1,673.52,120c-12.8-20.63-30.72-36.77-51.61-46.49L486.13,10.27A108.81,108.81,0,0,0,440.11,0H300.49c-36.54,0-71,18.62-93.43,50.44L186,80.4l4.49-1,11.7-16.6C224.55,31,259,12.4,295.57,12.4H435.19a108.81,108.81,0,0,1,46,10.27L617,85.88c20.89,9.72,38.81,25.86,51.61,46.49A123,123,0,0,0,711,174.07a109.53,109.53,0,0,0,55.18,15.06h37.09c33.22,0,64.75-16.17,86.15-44.18a114.56,114.56,0,0,1,38.64-32.59,104,104,0,0,1,47.51-11.59h.07a24.93,24.93,0,0,1,18.46,8.43l34.28,37.8a30.33,30.33,0,0,1,7.64,20.35,30.26,30.26,0,0,0,7.64,20.35,25,25,0,0,0,17.1,8.39l19.2-11.76Z"/></svg>